<svg version="1.1" xmlns="http://www.w3.org/2000/svg"  x="0px" y="0px" viewBox="0 0 133.1 76.7" width="24" height="24" enable-background="new 0 0 133.1 76.7;" xml:space="preserve">
            <path fill="#AAAAAA" d="M77.6,34.6c8.8-4.2,8.9-4.5,12.9-2.7c13.3,6.1,4.3,13.5,4.3,13.5l2.7,0.8c6.2,0.6,2.8-13.2,3.6-16.9
        c0.7-3.2,12.7-2.9,18.2-9.7c0.6-0.7,1.4-1.3,2.2-1.7c1.2-0.1,2.5,0,3.7,0.2c1.1,0.2,2.2,0.5,3.3,0.9c0.5,0.1,0.9,0.2,1.4,0.1
        c0.6-0.3,1.3-0.6,1.9-0.9l0.5-0.3c0.6-0.8,0.8-1.7,0.8-2.7c-0.4-1.3-1.2-2.4-2.4-3.2c-1.7-1.3-4.2-3.4-4.2-3.4s-4.2-2.3-4.9-2.3
        c0.3-0.9,0.2-1.8-0.1-2.6c0,0-1.9-3.9-4.9-3.9c0,0,1,2.6,0.8,3.7c-0.2-0.2-0.4-0.4-0.7-0.5c0,0-3.7-2.2-6-0.2c0,0,2.9,4.6,5,4.9
        c0.7,0.1,1.2,0.2,1.5,0.3c-0.1,0.1-0.3,0.2-0.4,0.4c-2.5,3.5-3.8,7.9-10.1,7.8C96,16.2,90,6.3,75.3,6.1
        C63.7,5.9,48.7,19.1,43.2,25.7c-5.9,7-15.2,12.1-24,14.8C6.9,44.2,0,44,0,44c0.6,0,1,4.2,7.3,3s25.4-4.5,37.8-13.5
        c5-3.6,7.5-7.8,11.3-5.9C63.3,31,61,38.5,61,38.5c-2.2,4.2-5.1,8-8.6,11.2c-0.8,0.7,0.7,14.7,0.5,16.5s-0.8,1-1.5,1.9
	c-0.9,1.3-0.5,4.6-0.5,6.7c0,0.7-0.2,1.3-0.5,1.9c2.1,0.1,5.2-7.1,6.1-8.5s0.1-14,0.1-14C59.9,47.9,77.6,34.6,77.6,34.6z"/></svg>
